<svg xmlns="http://www.w3.org/2000/svg" viewBox="0 0 200 200" width="200" height="200">
  <defs>
    <filter id="sh" x="-10%" y="-20%" width="120%" height="150%">
      <feDropShadow dx="0" dy="3" stdDeviation="2.5" flood-color="#04163d" flood-opacity="0.35"/>
    </filter>
  </defs>

  <!-- Band 1: top T1, bottom T2 -->
  <path filter="url(#sh)" d="M 20 32 C 50 14 85 46 115 30 C 145 14 168 42 180 32 L 180 66 C 170 78 148 48 118 64 C 80 82 55 48 20 66 Z" fill="#b8d6ff"/>

  <!-- Band 2: top T2, bottom T3 -->
  <path filter="url(#sh)" d="M 20 66 C 55 48 80 82 118 64 C 148 48 170 78 180 66 L 180 100 C 168 112 145 82 115 98 C 85 114 50 82 20 100 Z" fill="#4a92f0"/>

  <!-- Band 3: top T3, bottom T4 -->
  <path filter="url(#sh)" d="M 20 100 C 50 82 85 114 115 98 C 145 82 168 112 180 100 L 180 134 C 170 146 148 116 118 132 C 80 150 55 116 20 134 Z" fill="#1a5fc7"/>

  <!-- Band 4: top T4, bottom T5 -->
  <path filter="url(#sh)" d="M 20 134 C 55 116 80 150 118 132 C 148 116 170 146 180 134 L 180 168 C 168 180 148 150 118 166 C 80 184 50 150 20 168 Z" fill="#0a2e6b"/>
</svg>
